<svg xmlns="http://www.w3.org/2000/svg" width="253" height="42">
<path fill="context-fill #1F1F1F" d="M0.92273 5.59028V32.5208H5.79437V21.4326H18.9409V17.4563H5.79437V10.3639H20.5383V5.59028H0.92273ZM23.8646 5.59028V32.5208H28.7362V5.59028H23.8646ZM194.793 5.96702C194.18 5.96702 193.661 6.1754 193.236 6.59167C192.811 7.00794 192.599 7.51678 192.599 8.11806C192.599 8.71936 192.811 9.22818 193.236 9.64445C193.661 10.0607 194.18 10.2667 194.793 10.2667C195.384 10.2667 195.884 10.0607 196.297 9.64445C196.71 9.22818 196.917 8.71936 196.917 8.11806C196.917 7.51678 196.71 7.00793 196.297 6.59167C195.884 6.1754 195.384 5.96702 194.793 5.96702ZM185.884 6.69375V32.3653H189.106V6.69375H185.884ZM222.838 6.69375V32.3653H226.06V21.8531C226.06 19.8643 226.562 18.3511 227.566 17.3104C228.569 16.2697 229.919 15.7476 231.619 15.7476C233.294 15.7476 234.615 16.251 235.583 17.2569C236.55 18.2629 237.036 19.7137 237.036 21.6101V32.3653H240.221V21.1604C240.221 19.4028 239.884 17.9114 239.212 16.6857C238.539 15.46 237.613 14.5399 236.434 13.927C235.253 13.3142 233.93 13.0083 232.467 13.0083C231.075 13.0083 229.82 13.2736 228.699 13.8056C227.578 14.3375 226.697 15.0898 226.06 16.0611V6.69375H222.838ZM121.389 8.18611V32.3653H129.071C131.762 32.3653 134.093 31.8861 136.064 30.9264C138.035 29.9667 139.543 28.5783 140.593 26.7629C141.643 24.9475 142.171 22.8013 142.171 20.3268C142.17 17.8523 141.643 15.703 140.593 13.876C139.543 12.0491 138.035 10.6444 136.064 9.66148C134.093 8.6786 131.762 8.18611 129.071 8.18611H121.389ZM244.738 8.56769V13.3559H242.226V15.9566H244.738V27.1615C244.738 29.0116 245.188 30.3406 246.085 31.15C246.982 31.9594 248.327 32.3653 250.12 32.3653H253.023V29.6941H250.651C249.66 29.6941 248.964 29.502 248.563 29.1205C248.162 28.7389 247.96 28.0865 247.96 27.1615V15.9566H253.023V13.3559H247.96V8.56769H244.738ZM124.612 10.7528H129.071C132.234 10.7528 134.659 11.5972 136.346 13.2854C138.034 14.9736 138.877 17.3203 138.877 20.3268C138.876 23.31 138.039 25.6295 136.364 27.283C134.688 28.9365 132.257 29.7621 129.071 29.7621H124.612V10.7528ZM85.2416 12.2111L83.7755 12.2573C81.3483 12.3286 78.9746 13.9741 77.2418 15.8278V12.7143H72.3726V32.5208H77.2418V23.6687H77.2443C77.2435 23.0484 77.1521 19.8888 79.3428 18.3702C81.9047 16.5941 85.2757 16.9823 85.2757 16.9823L85.2416 12.2111ZM99.98 12.3107C97.1082 12.3837 94.8579 13.6787 93.2752 15.4802V12.7143H88.4039V37.2531H93.2752V29.4097C94.873 31.3309 97.1352 32.7351 99.98 32.6764C105.119 32.5703 109.409 28.1714 109.409 22.4924C109.409 16.8133 105.119 12.1803 99.98 12.3107ZM59.432 12.7045C56.3118 12.7892 53.5999 14.4967 50.5321 18.9292C47.1706 14.1083 44.0184 12.3771 40.6052 12.7823C34.4799 13.5095 30.75 19.6604 32.4371 25.4746C33.0801 27.6906 34.3547 29.5566 36.319 30.9118C37.6472 31.8281 39.4199 32.4698 40.7145 32.5257C44.1743 32.675 47.2907 30.9021 50.5246 26.3618C53.8665 31.0494 57.0709 32.8387 60.4416 32.5111C63.232 32.2399 65.3271 30.827 67.0024 28.7486C68.4022 27.0121 69.0974 24.5429 69.0488 22.3101C69.0326 21.5658 68.9293 20.8471 68.7462 20.1906C68.2607 18.45 67.7871 17.4293 66.6229 16.0393C64.9663 14.0612 62.5996 12.8084 60.0621 12.7069C59.8502 12.6985 59.6401 12.6989 59.432 12.7045ZM152.953 13.0424C151.23 13.0423 149.667 13.4482 148.263 14.2576C146.858 15.067 145.756 16.2065 144.954 17.675C144.151 19.1435 143.748 20.8487 143.748 22.7913C143.748 24.7108 144.151 26.4214 144.954 27.9246C145.756 29.4278 146.852 30.5945 148.246 31.427C149.638 32.2597 151.196 32.6764 152.918 32.6764C154.594 32.6764 156.064 32.3136 157.326 31.5851C158.589 30.8566 159.539 29.9364 160.176 28.8264V32.3653H163.433V13.3559H160.176V16.8243C159.563 15.7374 158.629 14.836 157.378 14.1191C156.127 13.4022 154.653 13.0424 152.953 13.0424ZM208.374 13.0424C206.651 13.0423 205.088 13.4482 203.683 14.2576C202.279 15.067 201.174 16.2065 200.373 17.675C199.57 19.1435 199.169 20.8487 199.169 22.7913C199.169 24.7108 199.57 26.4214 200.373 27.9246C201.174 29.4278 202.279 30.5945 203.683 31.427C205.088 32.2597 206.651 32.6764 208.374 32.6764C210.05 32.6764 211.511 32.3081 212.762 31.5681C214.013 30.828 214.958 29.9024 215.595 28.7924V32.7809C215.595 34.7466 215.034 36.2731 213.913 37.3601C212.792 38.447 211.347 38.9909 209.577 38.9909C208.02 38.9909 206.685 38.6366 205.576 37.9313C204.467 37.2259 203.735 36.2973 203.381 35.1409H200.196C200.503 37.1761 201.505 38.7813 203.205 39.9608C204.904 41.1402 207.028 41.7302 209.577 41.7302C211.442 41.7302 213.077 41.3486 214.481 40.5854C215.886 39.8222 216.963 38.764 217.718 37.4111C218.473 36.0582 218.852 34.5154 218.852 32.7809V13.3559H215.595V16.8243C214.982 15.7374 214.045 14.836 212.782 14.1191C211.519 13.4022 210.05 13.0424 208.374 13.0424ZM165.117 13.3559L172.941 32.1563L169.118 41.3146H172.447L184.128 13.3559H180.801L174.781 28.7583L168.694 13.3559H165.117ZM193.129 13.3559V32.3653H196.352V13.3559H193.129ZM153.591 15.7841C154.794 15.7841 155.896 16.0657 156.9 16.6323C157.902 17.1988 158.701 18.0161 159.291 19.0798C159.881 20.1437 160.176 21.3915 160.176 22.8254C160.176 24.2592 159.881 25.5149 159.291 26.5903C158.701 27.6656 157.902 28.4859 156.9 29.0524C155.896 29.619 154.794 29.9007 153.591 29.9007C152.387 29.9007 151.29 29.619 150.299 29.0524C149.308 28.4859 148.515 27.6656 147.926 26.5903C147.335 25.5149 147.042 24.2482 147.042 22.7913C147.042 21.3575 147.335 20.1072 147.926 19.0434C148.515 17.9796 149.308 17.1703 150.299 16.6153C151.29 16.0603 152.387 15.7841 153.591 15.7841ZM209.012 15.7841C210.215 15.7841 211.318 16.0657 212.321 16.6323C213.323 17.1988 214.12 18.0161 214.709 19.0798C215.299 20.1437 215.595 21.3915 215.595 22.8254C215.595 24.2592 215.299 25.5149 214.709 26.5903C214.12 27.6656 213.323 28.4859 212.321 29.0524C211.318 29.619 210.215 29.9007 209.012 29.9007C207.808 29.9007 206.709 29.619 205.718 29.0524C204.726 28.4859 203.937 27.6656 203.346 26.5903C202.756 25.5149 202.461 24.2482 202.461 22.7913C202.461 21.3575 202.756 20.1072 203.346 19.0434C203.937 17.9796 204.726 17.1703 205.718 16.6153C206.709 16.0603 207.808 15.7841 209.012 15.7841ZM99.2116 16.5035C102.454 16.5035 105.154 19.1382 105.154 22.4681C105.154 25.798 102.454 28.4424 99.2116 28.4424C95.9683 28.4424 93.2759 25.798 93.2752 22.4681C93.2752 19.1382 95.9683 16.5034 99.2116 16.5035ZM59.9008 16.676C61.2297 16.7291 62.5342 17.4219 63.4851 18.5573C64.2371 19.4551 64.482 19.9973 64.8295 21.2431C65.2352 22.6975 64.8468 24.9991 63.815 26.2792C62.7589 27.5894 61.5502 28.4023 60.0373 28.5493C59.1703 28.6336 58.3554 28.4419 57.3311 27.7545C55.995 26.8579 54.515 25.1719 52.9158 22.6576C54.5609 20.0215 56.0184 18.3127 57.2964 17.4393C58.2255 16.8042 58.9179 16.6367 59.9008 16.676ZM41.7339 16.7101C42.3605 16.7411 42.9688 16.9515 43.7009 17.4393C45.0211 18.3188 46.5049 20.0432 48.1385 22.6674C46.5892 25.114 45.1505 26.7573 43.8274 27.6548C42.7793 28.3659 41.9024 28.5928 40.893 28.5493C40.4123 28.5286 39.3737 28.1592 38.6532 27.6621C37.4837 26.8554 36.7426 25.765 36.3438 24.3906C35.3135 20.8399 37.5478 17.1557 41.0964 16.7344C41.3149 16.7085 41.525 16.6997 41.7339 16.7101Z"/>
</svg>
